<mxfile host="app.diagrams.net" agent="Mozilla/5.0 (Windows NT 10.0; Win64; x64) AppleWebKit/537.36 (KHTML, like Gecko) Chrome/134.0.0.0 Safari/537.36" version="26.1.1">
  <diagram name="Page-1" id="10a91c8b-09ff-31b1-d368-03940ed4cc9e">
    <mxGraphModel dx="1032" dy="786" grid="0" gridSize="10" guides="1" tooltips="1" connect="1" arrows="1" fold="1" page="0" pageScale="1" pageWidth="1100" pageHeight="850" background="none" math="0" shadow="0">
      <root>
        <mxCell id="0" />
        <mxCell id="1" parent="0" />
        <mxCell id="62893188c0fa7362-1" value="grp1" style="whiteSpace=wrap;html=1;rounded=1;shadow=1;labelBackgroundColor=none;strokeWidth=2;fontFamily=Verdana;fontSize=12;align=center;dashed=1;dashPattern=1 1;fillColor=#dae8fc;strokeColor=#FF0000;" parent="1" vertex="1">
          <mxGeometry x="525" y="170" width="50" height="30" as="geometry" />
        </mxCell>
        <mxCell id="62893188c0fa7362-2" value="&lt;span&gt;grp2&lt;/span&gt;" style="whiteSpace=wrap;html=1;rounded=1;shadow=1;labelBackgroundColor=none;strokeWidth=2;fontFamily=Verdana;fontSize=12;align=center;fillColor=#dae8fc;strokeColor=#000000;" parent="1" vertex="1">
          <mxGeometry x="456" y="230" width="50" height="30" as="geometry" />
        </mxCell>
        <mxCell id="62893188c0fa7362-4" value="" style="rounded=0;html=1;labelBackgroundColor=none;startArrow=none;startFill=0;startSize=5;endArrow=none;endFill=0;endSize=5;jettySize=auto;orthogonalLoop=1;strokeWidth=1;fontFamily=Verdana;fontSize=12;entryX=0.5;entryY=0;entryDx=0;entryDy=0;" parent="1" source="62893188c0fa7362-1" target="62893188c0fa7362-10" edge="1">
          <mxGeometry x="-0.3002" y="13" relative="1" as="geometry">
            <mxPoint as="offset" />
            <mxPoint x="797.5" y="170" as="targetPoint" />
          </mxGeometry>
        </mxCell>
        <mxCell id="62893188c0fa7362-5" value="" style="rounded=0;html=1;labelBackgroundColor=none;startArrow=none;startFill=0;startSize=5;endArrow=none;endFill=0;endSize=5;jettySize=auto;orthogonalLoop=1;strokeWidth=1;fontFamily=Verdana;fontSize=12;entryX=0.5;entryY=0;entryDx=0;entryDy=0;" parent="1" source="62893188c0fa7362-1" target="62893188c0fa7362-2" edge="1">
          <mxGeometry x="-0.2051" y="-17" relative="1" as="geometry">
            <mxPoint as="offset" />
          </mxGeometry>
        </mxCell>
        <mxCell id="62893188c0fa7362-10" value="&lt;span&gt;Q3&lt;/span&gt;" style="whiteSpace=wrap;html=1;rounded=0;shadow=1;labelBackgroundColor=none;strokeWidth=2;fontFamily=Verdana;fontSize=12;align=center;dashed=1;dashPattern=1 1;fillColor=#d5e8d4;strokeColor=#FF0000;" parent="1" vertex="1">
          <mxGeometry x="595" y="230" width="50" height="30" as="geometry" />
        </mxCell>
        <mxCell id="62893188c0fa7362-11" value="&lt;span&gt;Q4&lt;br&gt;&lt;/span&gt;" style="whiteSpace=wrap;html=1;rounded=0;shadow=1;labelBackgroundColor=none;strokeWidth=2;fontFamily=Verdana;fontSize=12;align=center;fillColor=#d5e8d4;strokeColor=#000000;fontColor=#000000;" parent="1" vertex="1">
          <mxGeometry x="560" y="280" width="50" height="30" as="geometry" />
        </mxCell>
        <mxCell id="62893188c0fa7362-14" value="" style="rounded=0;html=1;labelBackgroundColor=none;startArrow=none;startFill=0;startSize=5;endArrow=none;endFill=0;endSize=5;jettySize=auto;orthogonalLoop=1;strokeWidth=1;fontFamily=Verdana;fontSize=12;entryX=0.5;entryY=0;entryDx=0;entryDy=0;" parent="1" source="62893188c0fa7362-2" target="62893188c0fa7362-23" edge="1">
          <mxGeometry x="-0.2" y="-14" relative="1" as="geometry">
            <mxPoint as="offset" />
            <mxPoint x="410" y="280" as="targetPoint" />
          </mxGeometry>
        </mxCell>
        <mxCell id="62893188c0fa7362-17" value="" style="rounded=0;html=1;labelBackgroundColor=none;startArrow=none;startFill=0;startSize=5;endArrow=none;endFill=0;endSize=5;jettySize=auto;orthogonalLoop=1;strokeWidth=1;fontFamily=Verdana;fontSize=12;exitX=0.25;exitY=1;exitDx=0;exitDy=0;entryX=0.5;entryY=0;entryDx=0;entryDy=0;" parent="1" source="62893188c0fa7362-10" target="62893188c0fa7362-11" edge="1">
          <mxGeometry x="-0.1294" y="17" relative="1" as="geometry">
            <mxPoint as="offset" />
            <mxPoint x="867.2727272727273" y="230" as="sourcePoint" />
          </mxGeometry>
        </mxCell>
        <mxCell id="62893188c0fa7362-23" value="&lt;span&gt;Q1&lt;/span&gt;" style="whiteSpace=wrap;html=1;rounded=0;shadow=1;labelBackgroundColor=none;strokeWidth=2;fontFamily=Verdana;fontSize=12;align=center;fillColor=#d5e8d4;strokeColor=#000000;dashed=1;dashPattern=1 1;" parent="1" vertex="1">
          <mxGeometry x="420" y="280" width="50" height="30" as="geometry" />
        </mxCell>
        <mxCell id="62893188c0fa7362-27" value="" style="rounded=0;html=1;labelBackgroundColor=none;startArrow=none;startFill=0;startSize=5;endArrow=none;endFill=0;endSize=5;jettySize=auto;orthogonalLoop=1;strokeWidth=1;fontFamily=Verdana;fontSize=12;entryX=0.5;entryY=1;entryDx=0;entryDy=0;exitX=0.5;exitY=0;exitDx=0;exitDy=0;" parent="1" source="CBZNjNMLxmk2BXDKTw0N-4" target="CBZNjNMLxmk2BXDKTw0N-3" edge="1">
          <mxGeometry x="0.1373" y="16" relative="1" as="geometry">
            <mxPoint as="offset" />
            <mxPoint x="575.7142857142858" y="455" as="sourcePoint" />
          </mxGeometry>
        </mxCell>
        <mxCell id="CBZNjNMLxmk2BXDKTw0N-1" value="&lt;span&gt;Q2&lt;br&gt;&lt;/span&gt;" style="whiteSpace=wrap;html=1;rounded=0;shadow=1;labelBackgroundColor=none;strokeWidth=2;fontFamily=Verdana;fontSize=12;align=center;fillColor=#d5e8d4;strokeColor=#000000;" parent="1" vertex="1">
          <mxGeometry x="490" y="280" width="50" height="30" as="geometry" />
        </mxCell>
        <mxCell id="CBZNjNMLxmk2BXDKTw0N-2" value="" style="rounded=0;html=1;labelBackgroundColor=none;startArrow=none;startFill=0;startSize=5;endArrow=none;endFill=0;endSize=5;jettySize=auto;orthogonalLoop=1;strokeWidth=1;fontFamily=Verdana;fontSize=12;exitX=0.75;exitY=1;exitDx=0;exitDy=0;entryX=0.45;entryY=-0.05;entryDx=0;entryDy=0;entryPerimeter=0;" parent="1" source="62893188c0fa7362-2" target="CBZNjNMLxmk2BXDKTw0N-1" edge="1">
          <mxGeometry x="-0.2" y="-14" relative="1" as="geometry">
            <mxPoint as="offset" />
            <mxPoint x="470" y="240" as="sourcePoint" />
            <mxPoint x="420" y="290" as="targetPoint" />
          </mxGeometry>
        </mxCell>
        <mxCell id="CBZNjNMLxmk2BXDKTw0N-3" value="&lt;span&gt;grp3&lt;/span&gt;" style="whiteSpace=wrap;html=1;rounded=1;shadow=1;labelBackgroundColor=none;strokeWidth=2;fontFamily=Verdana;fontSize=12;align=center;fillColor=#dae8fc;strokeColor=#000000;" parent="1" vertex="1">
          <mxGeometry x="630" y="280" width="50" height="30" as="geometry" />
        </mxCell>
        <mxCell id="CBZNjNMLxmk2BXDKTw0N-4" value="&lt;span&gt;Q5&lt;br&gt;&lt;/span&gt;" style="whiteSpace=wrap;html=1;rounded=0;shadow=1;labelBackgroundColor=none;strokeWidth=2;fontFamily=Verdana;fontSize=12;align=center;fillColor=#d5e8d4;strokeColor=#000000;" parent="1" vertex="1">
          <mxGeometry x="630" y="340" width="50" height="30" as="geometry" />
        </mxCell>
        <mxCell id="CBZNjNMLxmk2BXDKTw0N-5" value="" style="rounded=0;html=1;labelBackgroundColor=none;startArrow=none;startFill=0;startSize=5;endArrow=none;endFill=0;endSize=5;jettySize=auto;orthogonalLoop=1;strokeWidth=1;fontFamily=Verdana;fontSize=12;entryX=0.75;entryY=1;entryDx=0;entryDy=0;exitX=0.5;exitY=0;exitDx=0;exitDy=0;" parent="1" source="CBZNjNMLxmk2BXDKTw0N-3" target="62893188c0fa7362-10" edge="1">
          <mxGeometry x="0.1373" y="16" relative="1" as="geometry">
            <mxPoint as="offset" />
            <mxPoint x="665" y="350" as="sourcePoint" />
            <mxPoint x="665" y="320" as="targetPoint" />
          </mxGeometry>
        </mxCell>
        <mxCell id="CBZNjNMLxmk2BXDKTw0N-6" value="" style="whiteSpace=wrap;html=1;rounded=1;shadow=1;labelBackgroundColor=none;strokeWidth=2;fontFamily=Verdana;fontSize=12;align=center;fillColor=#dae8fc;strokeColor=#000000;" parent="1" vertex="1">
          <mxGeometry x="782" y="200" width="50" height="30" as="geometry" />
        </mxCell>
        <mxCell id="CBZNjNMLxmk2BXDKTw0N-8" value="Group" style="text;html=1;strokeColor=none;fillColor=none;align=left;verticalAlign=middle;whiteSpace=wrap;rounded=0;" parent="1" vertex="1">
          <mxGeometry x="842" y="200" width="60" height="30" as="geometry" />
        </mxCell>
        <mxCell id="CBZNjNMLxmk2BXDKTw0N-9" value="" style="whiteSpace=wrap;html=1;rounded=0;shadow=1;labelBackgroundColor=none;strokeWidth=2;fontFamily=Verdana;fontSize=12;align=center;fillColor=#d5e8d4;strokeColor=#000000;" parent="1" vertex="1">
          <mxGeometry x="782" y="240" width="50" height="30" as="geometry" />
        </mxCell>
        <mxCell id="CBZNjNMLxmk2BXDKTw0N-10" value="Question" style="text;html=1;strokeColor=none;fillColor=none;align=left;verticalAlign=middle;whiteSpace=wrap;rounded=0;" parent="1" vertex="1">
          <mxGeometry x="842" y="240" width="60" height="30" as="geometry" />
        </mxCell>
        <mxCell id="CBZNjNMLxmk2BXDKTw0N-11" value="" style="ellipse;whiteSpace=wrap;html=1;strokeWidth=2;fillColor=#fff2cc;strokeColor=#d6b656;" parent="1" vertex="1">
          <mxGeometry x="782" y="280" width="50" height="30" as="geometry" />
        </mxCell>
        <mxCell id="CBZNjNMLxmk2BXDKTw0N-12" value="Answer" style="text;html=1;strokeColor=none;fillColor=none;align=left;verticalAlign=middle;whiteSpace=wrap;rounded=0;" parent="1" vertex="1">
          <mxGeometry x="842" y="280" width="60" height="30" as="geometry" />
        </mxCell>
        <mxCell id="CBZNjNMLxmk2BXDKTw0N-13" value="" style="endArrow=none;dashed=1;html=1;dashPattern=1 1;strokeWidth=2;rounded=0;" parent="1" edge="1">
          <mxGeometry width="50" height="50" relative="1" as="geometry">
            <mxPoint x="782" y="328" as="sourcePoint" />
            <mxPoint x="832" y="328" as="targetPoint" />
          </mxGeometry>
        </mxCell>
        <mxCell id="CBZNjNMLxmk2BXDKTw0N-14" value="" style="endArrow=none;html=1;strokeWidth=2;rounded=0;" parent="1" edge="1">
          <mxGeometry width="50" height="50" relative="1" as="geometry">
            <mxPoint x="781" y="350" as="sourcePoint" />
            <mxPoint x="831" y="350" as="targetPoint" />
          </mxGeometry>
        </mxCell>
        <mxCell id="CBZNjNMLxmk2BXDKTw0N-15" value="Repeats = true" style="text;html=1;strokeColor=none;fillColor=none;align=left;verticalAlign=middle;whiteSpace=wrap;rounded=0;" parent="1" vertex="1">
          <mxGeometry x="842" y="313" width="90" height="30" as="geometry" />
        </mxCell>
        <mxCell id="CBZNjNMLxmk2BXDKTw0N-16" value="Repeats = false" style="text;html=1;strokeColor=none;fillColor=none;align=left;verticalAlign=middle;whiteSpace=wrap;rounded=0;" parent="1" vertex="1">
          <mxGeometry x="842" y="336" width="90" height="30" as="geometry" />
        </mxCell>
        <mxCell id="CBZNjNMLxmk2BXDKTw0N-17" value="Legend" style="text;html=1;strokeColor=none;fillColor=none;align=center;verticalAlign=middle;whiteSpace=wrap;rounded=0;fontStyle=1" parent="1" vertex="1">
          <mxGeometry x="812" y="170" width="60" height="30" as="geometry" />
        </mxCell>
        <mxCell id="CBZNjNMLxmk2BXDKTw0N-35" value="grp1" style="whiteSpace=wrap;html=1;rounded=1;shadow=1;labelBackgroundColor=none;strokeWidth=2;fontFamily=Verdana;fontSize=12;align=center;fillColor=#dae8fc;strokeColor=#000000;" parent="1" vertex="1">
          <mxGeometry x="605" y="455" width="50" height="30" as="geometry" />
        </mxCell>
        <mxCell id="CBZNjNMLxmk2BXDKTw0N-36" value="&lt;span&gt;grp2&lt;/span&gt;" style="whiteSpace=wrap;html=1;rounded=1;shadow=1;labelBackgroundColor=none;strokeWidth=2;fontFamily=Verdana;fontSize=12;align=center;fillColor=#dae8fc;strokeColor=#000000;" parent="1" vertex="1">
          <mxGeometry x="492" y="515" width="50" height="30" as="geometry" />
        </mxCell>
        <mxCell id="CBZNjNMLxmk2BXDKTw0N-37" value="" style="rounded=0;html=1;labelBackgroundColor=none;startArrow=none;startFill=0;startSize=5;endArrow=none;endFill=0;endSize=5;jettySize=auto;orthogonalLoop=1;strokeWidth=1;fontFamily=Verdana;fontSize=12;entryX=0.5;entryY=0;entryDx=0;entryDy=0;" parent="1" source="CBZNjNMLxmk2BXDKTw0N-35" target="CBZNjNMLxmk2BXDKTw0N-39" edge="1">
          <mxGeometry x="-0.3002" y="13" relative="1" as="geometry">
            <mxPoint as="offset" />
            <mxPoint x="842.5" y="455" as="targetPoint" />
          </mxGeometry>
        </mxCell>
        <mxCell id="CBZNjNMLxmk2BXDKTw0N-38" value="" style="rounded=0;html=1;labelBackgroundColor=none;startArrow=none;startFill=0;startSize=5;endArrow=none;endFill=0;endSize=5;jettySize=auto;orthogonalLoop=1;strokeWidth=1;fontFamily=Verdana;fontSize=12;entryX=0.5;entryY=0;entryDx=0;entryDy=0;" parent="1" source="CBZNjNMLxmk2BXDKTw0N-35" target="CBZNjNMLxmk2BXDKTw0N-36" edge="1">
          <mxGeometry x="-0.2051" y="-17" relative="1" as="geometry">
            <mxPoint as="offset" />
          </mxGeometry>
        </mxCell>
        <mxCell id="CBZNjNMLxmk2BXDKTw0N-39" value="&lt;span&gt;Q3&lt;/span&gt;" style="whiteSpace=wrap;html=1;rounded=0;shadow=1;labelBackgroundColor=none;strokeWidth=2;fontFamily=Verdana;fontSize=12;align=center;fillColor=#d5e8d4;strokeColor=#000000;" parent="1" vertex="1">
          <mxGeometry x="711" y="515" width="50" height="30" as="geometry" />
        </mxCell>
        <mxCell id="CBZNjNMLxmk2BXDKTw0N-40" value="&lt;span&gt;Q4&lt;br&gt;&lt;/span&gt;" style="whiteSpace=wrap;html=1;rounded=0;shadow=1;labelBackgroundColor=none;strokeWidth=2;fontFamily=Verdana;fontSize=12;align=center;fillColor=#d5e8d4;strokeColor=#000000;" parent="1" vertex="1">
          <mxGeometry x="605" y="620" width="50" height="30" as="geometry" />
        </mxCell>
        <mxCell id="CBZNjNMLxmk2BXDKTw0N-41" value="" style="rounded=0;html=1;labelBackgroundColor=none;startArrow=none;startFill=0;startSize=5;endArrow=none;endFill=0;endSize=5;jettySize=auto;orthogonalLoop=1;strokeWidth=1;fontFamily=Verdana;fontSize=12;entryX=0.5;entryY=0;entryDx=0;entryDy=0;" parent="1" source="CBZNjNMLxmk2BXDKTw0N-36" target="CBZNjNMLxmk2BXDKTw0N-43" edge="1">
          <mxGeometry x="-0.2" y="-14" relative="1" as="geometry">
            <mxPoint as="offset" />
            <mxPoint x="455" y="565" as="targetPoint" />
          </mxGeometry>
        </mxCell>
        <mxCell id="CBZNjNMLxmk2BXDKTw0N-42" value="" style="rounded=0;html=1;labelBackgroundColor=none;startArrow=none;startFill=0;startSize=5;endArrow=none;endFill=0;endSize=5;jettySize=auto;orthogonalLoop=1;strokeWidth=1;fontFamily=Verdana;fontSize=12;exitX=0;exitY=1;exitDx=0;exitDy=0;entryX=0.5;entryY=0;entryDx=0;entryDy=0;" parent="1" source="CBZNjNMLxmk2BXDKTw0N-60" target="CBZNjNMLxmk2BXDKTw0N-40" edge="1">
          <mxGeometry x="-0.1294" y="17" relative="1" as="geometry">
            <mxPoint as="offset" />
            <mxPoint x="912.2727272727273" y="515" as="sourcePoint" />
          </mxGeometry>
        </mxCell>
        <mxCell id="CBZNjNMLxmk2BXDKTw0N-43" value="&lt;span&gt;Q1&lt;/span&gt;" style="whiteSpace=wrap;html=1;rounded=0;shadow=1;labelBackgroundColor=none;strokeWidth=2;fontFamily=Verdana;fontSize=12;align=center;fillColor=#d5e8d4;strokeColor=#000000;" parent="1" vertex="1">
          <mxGeometry x="447" y="565" width="50" height="30" as="geometry" />
        </mxCell>
        <mxCell id="CBZNjNMLxmk2BXDKTw0N-44" value="" style="rounded=0;html=1;labelBackgroundColor=none;startArrow=none;startFill=0;startSize=5;endArrow=none;endFill=0;endSize=5;jettySize=auto;orthogonalLoop=1;strokeWidth=1;fontFamily=Verdana;fontSize=12;entryX=0.5;entryY=1;entryDx=0;entryDy=0;exitX=0.5;exitY=0;exitDx=0;exitDy=0;" parent="1" source="CBZNjNMLxmk2BXDKTw0N-48" target="CBZNjNMLxmk2BXDKTw0N-47" edge="1">
          <mxGeometry x="0.1373" y="16" relative="1" as="geometry">
            <mxPoint as="offset" />
            <mxPoint x="620.7142857142858" y="740" as="sourcePoint" />
          </mxGeometry>
        </mxCell>
        <mxCell id="CBZNjNMLxmk2BXDKTw0N-45" value="&lt;span&gt;Q2&lt;br&gt;&lt;/span&gt;" style="whiteSpace=wrap;html=1;rounded=0;shadow=1;labelBackgroundColor=none;strokeWidth=2;fontFamily=Verdana;fontSize=12;align=center;fillColor=#d5e8d4;strokeColor=#000000;" parent="1" vertex="1">
          <mxGeometry x="535" y="565" width="50" height="30" as="geometry" />
        </mxCell>
        <mxCell id="CBZNjNMLxmk2BXDKTw0N-46" value="" style="rounded=0;html=1;labelBackgroundColor=none;startArrow=none;startFill=0;startSize=5;endArrow=none;endFill=0;endSize=5;jettySize=auto;orthogonalLoop=1;strokeWidth=1;fontFamily=Verdana;fontSize=12;exitX=0.75;exitY=1;exitDx=0;exitDy=0;entryX=0.45;entryY=-0.05;entryDx=0;entryDy=0;entryPerimeter=0;" parent="1" source="CBZNjNMLxmk2BXDKTw0N-36" target="CBZNjNMLxmk2BXDKTw0N-45" edge="1">
          <mxGeometry x="-0.2" y="-14" relative="1" as="geometry">
            <mxPoint as="offset" />
            <mxPoint x="515" y="525" as="sourcePoint" />
            <mxPoint x="465" y="575" as="targetPoint" />
          </mxGeometry>
        </mxCell>
        <mxCell id="CBZNjNMLxmk2BXDKTw0N-47" value="&lt;span&gt;grp3&lt;/span&gt;" style="whiteSpace=wrap;html=1;rounded=1;shadow=1;labelBackgroundColor=none;strokeWidth=2;fontFamily=Verdana;fontSize=12;align=center;fillColor=#dae8fc;strokeColor=#000000;" parent="1" vertex="1">
          <mxGeometry x="675" y="620" width="50" height="30" as="geometry" />
        </mxCell>
        <mxCell id="CBZNjNMLxmk2BXDKTw0N-48" value="&lt;span&gt;Q4&lt;br&gt;&lt;/span&gt;" style="whiteSpace=wrap;html=1;rounded=0;shadow=1;labelBackgroundColor=none;strokeWidth=2;fontFamily=Verdana;fontSize=12;align=center;fillColor=#d5e8d4;strokeColor=#000000;" parent="1" vertex="1">
          <mxGeometry x="675" y="680" width="50" height="30" as="geometry" />
        </mxCell>
        <mxCell id="CBZNjNMLxmk2BXDKTw0N-49" value="" style="rounded=0;html=1;labelBackgroundColor=none;startArrow=none;startFill=0;startSize=5;endArrow=none;endFill=0;endSize=5;jettySize=auto;orthogonalLoop=1;strokeWidth=1;fontFamily=Verdana;fontSize=12;entryX=1;entryY=1;entryDx=0;entryDy=0;exitX=0.5;exitY=0;exitDx=0;exitDy=0;" parent="1" source="CBZNjNMLxmk2BXDKTw0N-47" target="CBZNjNMLxmk2BXDKTw0N-60" edge="1">
          <mxGeometry x="0.1373" y="16" relative="1" as="geometry">
            <mxPoint as="offset" />
            <mxPoint x="710" y="635" as="sourcePoint" />
            <mxPoint x="710" y="605" as="targetPoint" />
          </mxGeometry>
        </mxCell>
        <mxCell id="CBZNjNMLxmk2BXDKTw0N-53" value="" style="ellipse;whiteSpace=wrap;html=1;strokeWidth=2;fillColor=#fff2cc;strokeColor=#d6b656;" parent="1" vertex="1">
          <mxGeometry x="415" y="620" width="50" height="30" as="geometry" />
        </mxCell>
        <mxCell id="CBZNjNMLxmk2BXDKTw0N-54" value="" style="ellipse;whiteSpace=wrap;html=1;strokeWidth=2;fillColor=#fff2cc;strokeColor=#d6b656;" parent="1" vertex="1">
          <mxGeometry x="475" y="620" width="50" height="30" as="geometry" />
        </mxCell>
        <mxCell id="CBZNjNMLxmk2BXDKTw0N-55" value="" style="ellipse;whiteSpace=wrap;html=1;strokeWidth=2;fillColor=#fff2cc;strokeColor=#d6b656;" parent="1" vertex="1">
          <mxGeometry x="535" y="620" width="50" height="30" as="geometry" />
        </mxCell>
        <mxCell id="CBZNjNMLxmk2BXDKTw0N-57" value="" style="rounded=0;html=1;labelBackgroundColor=none;startArrow=none;startFill=0;startSize=5;endArrow=none;endFill=0;endSize=5;jettySize=auto;orthogonalLoop=1;strokeWidth=1;fontFamily=Verdana;fontSize=12;entryX=0.5;entryY=0;entryDx=0;entryDy=0;exitX=0.25;exitY=1;exitDx=0;exitDy=0;" parent="1" source="CBZNjNMLxmk2BXDKTw0N-43" target="CBZNjNMLxmk2BXDKTw0N-53" edge="1">
          <mxGeometry x="-0.2" y="-14" relative="1" as="geometry">
            <mxPoint as="offset" />
            <mxPoint x="482" y="575" as="targetPoint" />
            <mxPoint x="507.7142857142858" y="555" as="sourcePoint" />
          </mxGeometry>
        </mxCell>
        <mxCell id="CBZNjNMLxmk2BXDKTw0N-58" value="" style="rounded=0;html=1;labelBackgroundColor=none;startArrow=none;startFill=0;startSize=5;endArrow=none;endFill=0;endSize=5;jettySize=auto;orthogonalLoop=1;strokeWidth=1;fontFamily=Verdana;fontSize=12;entryX=0.5;entryY=0;entryDx=0;entryDy=0;exitX=0.75;exitY=1;exitDx=0;exitDy=0;" parent="1" source="CBZNjNMLxmk2BXDKTw0N-43" target="CBZNjNMLxmk2BXDKTw0N-54" edge="1">
          <mxGeometry x="-0.2" y="-14" relative="1" as="geometry">
            <mxPoint as="offset" />
            <mxPoint x="450" y="630" as="targetPoint" />
            <mxPoint x="469.5" y="605" as="sourcePoint" />
          </mxGeometry>
        </mxCell>
        <mxCell id="CBZNjNMLxmk2BXDKTw0N-59" value="" style="rounded=0;html=1;labelBackgroundColor=none;startArrow=none;startFill=0;startSize=5;endArrow=none;endFill=0;endSize=5;jettySize=auto;orthogonalLoop=1;strokeWidth=1;fontFamily=Verdana;fontSize=12;entryX=0.5;entryY=0;entryDx=0;entryDy=0;exitX=0.5;exitY=1;exitDx=0;exitDy=0;" parent="1" source="CBZNjNMLxmk2BXDKTw0N-45" target="CBZNjNMLxmk2BXDKTw0N-55" edge="1">
          <mxGeometry x="-0.2" y="-14" relative="1" as="geometry">
            <mxPoint as="offset" />
            <mxPoint x="530" y="630" as="targetPoint" />
            <mxPoint x="514.5" y="605" as="sourcePoint" />
          </mxGeometry>
        </mxCell>
        <mxCell id="CBZNjNMLxmk2BXDKTw0N-60" value="" style="ellipse;whiteSpace=wrap;html=1;strokeWidth=2;fillColor=#fff2cc;strokeColor=#d6b656;" parent="1" vertex="1">
          <mxGeometry x="640" y="565" width="50" height="30" as="geometry" />
        </mxCell>
        <mxCell id="CBZNjNMLxmk2BXDKTw0N-61" value="" style="ellipse;whiteSpace=wrap;html=1;strokeWidth=2;fillColor=#fff2cc;strokeColor=#d6b656;" parent="1" vertex="1">
          <mxGeometry x="780" y="565" width="50" height="30" as="geometry" />
        </mxCell>
        <mxCell id="CBZNjNMLxmk2BXDKTw0N-62" value="&lt;span&gt;Q4&lt;br&gt;&lt;/span&gt;" style="whiteSpace=wrap;html=1;rounded=0;shadow=1;labelBackgroundColor=none;strokeWidth=2;fontFamily=Verdana;fontSize=12;align=center;fillColor=#d5e8d4;strokeColor=#000000;" parent="1" vertex="1">
          <mxGeometry x="745" y="620" width="50" height="30" as="geometry" />
        </mxCell>
        <mxCell id="CBZNjNMLxmk2BXDKTw0N-63" value="&lt;span&gt;grp3&lt;/span&gt;" style="whiteSpace=wrap;html=1;rounded=1;shadow=1;labelBackgroundColor=none;strokeWidth=2;fontFamily=Verdana;fontSize=12;align=center;fillColor=#dae8fc;strokeColor=#000000;" parent="1" vertex="1">
          <mxGeometry x="815" y="620" width="50" height="30" as="geometry" />
        </mxCell>
        <mxCell id="CBZNjNMLxmk2BXDKTw0N-64" value="&lt;span&gt;Q4&lt;br&gt;&lt;/span&gt;" style="whiteSpace=wrap;html=1;rounded=0;shadow=1;labelBackgroundColor=none;strokeWidth=2;fontFamily=Verdana;fontSize=12;align=center;fillColor=#d5e8d4;strokeColor=#82b366;" parent="1" vertex="1">
          <mxGeometry x="815" y="680" width="50" height="30" as="geometry" />
        </mxCell>
        <mxCell id="CBZNjNMLxmk2BXDKTw0N-65" value="" style="rounded=0;html=1;labelBackgroundColor=none;startArrow=none;startFill=0;startSize=5;endArrow=none;endFill=0;endSize=5;jettySize=auto;orthogonalLoop=1;strokeWidth=1;fontFamily=Verdana;fontSize=12;entryX=0;entryY=1;entryDx=0;entryDy=0;exitX=0.5;exitY=0;exitDx=0;exitDy=0;" parent="1" source="CBZNjNMLxmk2BXDKTw0N-62" target="CBZNjNMLxmk2BXDKTw0N-61" edge="1">
          <mxGeometry x="0.1373" y="16" relative="1" as="geometry">
            <mxPoint as="offset" />
            <mxPoint x="710" y="630" as="sourcePoint" />
            <mxPoint x="692.6776695296637" y="600.6066017177982" as="targetPoint" />
          </mxGeometry>
        </mxCell>
        <mxCell id="CBZNjNMLxmk2BXDKTw0N-66" value="" style="rounded=0;html=1;labelBackgroundColor=none;startArrow=none;startFill=0;startSize=5;endArrow=none;endFill=0;endSize=5;jettySize=auto;orthogonalLoop=1;strokeWidth=1;fontFamily=Verdana;fontSize=12;entryX=1;entryY=1;entryDx=0;entryDy=0;exitX=0.5;exitY=0;exitDx=0;exitDy=0;" parent="1" source="CBZNjNMLxmk2BXDKTw0N-63" target="CBZNjNMLxmk2BXDKTw0N-61" edge="1">
          <mxGeometry x="0.1373" y="16" relative="1" as="geometry">
            <mxPoint as="offset" />
            <mxPoint x="780" y="630" as="sourcePoint" />
            <mxPoint x="797.3223304703365" y="600.6066017177982" as="targetPoint" />
          </mxGeometry>
        </mxCell>
        <mxCell id="CBZNjNMLxmk2BXDKTw0N-67" value="" style="rounded=0;html=1;labelBackgroundColor=none;startArrow=none;startFill=0;startSize=5;endArrow=none;endFill=0;endSize=5;jettySize=auto;orthogonalLoop=1;strokeWidth=1;fontFamily=Verdana;fontSize=12;entryX=0.5;entryY=1;entryDx=0;entryDy=0;exitX=0.5;exitY=0;exitDx=0;exitDy=0;" parent="1" source="CBZNjNMLxmk2BXDKTw0N-64" target="CBZNjNMLxmk2BXDKTw0N-63" edge="1">
          <mxGeometry x="0.1373" y="16" relative="1" as="geometry">
            <mxPoint as="offset" />
            <mxPoint x="780" y="630" as="sourcePoint" />
            <mxPoint x="797.3223304703365" y="600.6066017177982" as="targetPoint" />
          </mxGeometry>
        </mxCell>
        <mxCell id="CBZNjNMLxmk2BXDKTw0N-68" value="" style="rounded=0;html=1;labelBackgroundColor=none;startArrow=none;startFill=0;startSize=5;endArrow=none;endFill=0;endSize=5;jettySize=auto;orthogonalLoop=1;strokeWidth=1;fontFamily=Verdana;fontSize=12;entryX=0.75;entryY=1;entryDx=0;entryDy=0;exitX=0;exitY=0;exitDx=0;exitDy=0;" parent="1" source="CBZNjNMLxmk2BXDKTw0N-61" target="CBZNjNMLxmk2BXDKTw0N-39" edge="1">
          <mxGeometry x="0.1373" y="16" relative="1" as="geometry">
            <mxPoint as="offset" />
            <mxPoint x="850" y="690" as="sourcePoint" />
            <mxPoint x="850" y="660" as="targetPoint" />
          </mxGeometry>
        </mxCell>
        <mxCell id="CBZNjNMLxmk2BXDKTw0N-69" value="" style="rounded=0;html=1;labelBackgroundColor=none;startArrow=none;startFill=0;startSize=5;endArrow=none;endFill=0;endSize=5;jettySize=auto;orthogonalLoop=1;strokeWidth=1;fontFamily=Verdana;fontSize=12;entryX=0.25;entryY=1;entryDx=0;entryDy=0;exitX=1;exitY=0;exitDx=0;exitDy=0;" parent="1" source="CBZNjNMLxmk2BXDKTw0N-60" target="CBZNjNMLxmk2BXDKTw0N-39" edge="1">
          <mxGeometry x="0.1373" y="16" relative="1" as="geometry">
            <mxPoint as="offset" />
            <mxPoint x="797.3223304703365" y="579.3933982822018" as="sourcePoint" />
            <mxPoint x="758.5" y="555" as="targetPoint" />
          </mxGeometry>
        </mxCell>
        <mxCell id="CBZNjNMLxmk2BXDKTw0N-73" value="" style="endArrow=none;html=1;strokeWidth=2;rounded=0;strokeColor=#FF0000;" parent="1" edge="1">
          <mxGeometry width="50" height="50" relative="1" as="geometry">
            <mxPoint x="780" y="372" as="sourcePoint" />
            <mxPoint x="830" y="372" as="targetPoint" />
          </mxGeometry>
        </mxCell>
        <mxCell id="CBZNjNMLxmk2BXDKTw0N-75" value="Required = true" style="text;html=1;strokeColor=none;fillColor=none;align=left;verticalAlign=middle;whiteSpace=wrap;rounded=0;" parent="1" vertex="1">
          <mxGeometry x="840" y="357" width="90" height="30" as="geometry" />
        </mxCell>
        <mxCell id="CBZNjNMLxmk2BXDKTw0N-81" value="&lt;span&gt;Q5&lt;br&gt;&lt;/span&gt;" style="whiteSpace=wrap;html=1;rounded=0;shadow=1;labelBackgroundColor=none;strokeWidth=2;fontFamily=Verdana;fontSize=12;align=center;fillColor=#d5e8d4;strokeColor=#000000;" parent="1" vertex="1">
          <mxGeometry x="815" y="680" width="50" height="30" as="geometry" />
        </mxCell>
        <mxCell id="CBZNjNMLxmk2BXDKTw0N-82" value="grp1" style="whiteSpace=wrap;html=1;rounded=1;shadow=1;labelBackgroundColor=none;strokeWidth=2;fontFamily=Verdana;fontSize=12;align=center;fillColor=#dae8fc;strokeColor=#000000;" parent="1" vertex="1">
          <mxGeometry x="884" y="455" width="50" height="30" as="geometry" />
        </mxCell>
        <mxCell id="CBZNjNMLxmk2BXDKTw0N-83" value="" style="rounded=0;html=1;labelBackgroundColor=none;startArrow=none;startFill=0;startSize=5;endArrow=none;endFill=0;endSize=5;jettySize=auto;orthogonalLoop=1;strokeWidth=1;fontFamily=Verdana;fontSize=12;entryX=0.5;entryY=0;entryDx=0;entryDy=0;" parent="1" source="CBZNjNMLxmk2BXDKTw0N-82" target="CBZNjNMLxmk2BXDKTw0N-84" edge="1">
          <mxGeometry x="-0.3002" y="13" relative="1" as="geometry">
            <mxPoint as="offset" />
            <mxPoint x="1121.5" y="480" as="targetPoint" />
          </mxGeometry>
        </mxCell>
        <mxCell id="CBZNjNMLxmk2BXDKTw0N-84" value="&lt;span&gt;Q3&lt;/span&gt;" style="whiteSpace=wrap;html=1;rounded=0;shadow=1;labelBackgroundColor=none;strokeWidth=2;fontFamily=Verdana;fontSize=12;align=center;fillColor=#d5e8d4;strokeColor=#000000;" parent="1" vertex="1">
          <mxGeometry x="884" y="515" width="50" height="30" as="geometry" />
        </mxCell>
        <mxCell id="CBZNjNMLxmk2BXDKTw0N-89" value="" style="ellipse;whiteSpace=wrap;html=1;strokeWidth=2;fillColor=#fff2cc;strokeColor=#d6b656;" parent="1" vertex="1">
          <mxGeometry x="884" y="565" width="50" height="30" as="geometry" />
        </mxCell>
        <mxCell id="CBZNjNMLxmk2BXDKTw0N-93" value="" style="rounded=0;html=1;labelBackgroundColor=none;startArrow=none;startFill=0;startSize=5;endArrow=none;endFill=0;endSize=5;jettySize=auto;orthogonalLoop=1;strokeWidth=1;fontFamily=Verdana;fontSize=12;exitX=0.5;exitY=0;exitDx=0;exitDy=0;entryX=0.5;entryY=1;entryDx=0;entryDy=0;" parent="1" source="CBZNjNMLxmk2BXDKTw0N-89" target="CBZNjNMLxmk2BXDKTw0N-84" edge="1">
          <mxGeometry x="0.1373" y="16" relative="1" as="geometry">
            <mxPoint as="offset" />
            <mxPoint x="1076.3223304703365" y="604.3933982822018" as="sourcePoint" />
            <mxPoint x="904" y="550" as="targetPoint" />
          </mxGeometry>
        </mxCell>
        <mxCell id="CBZNjNMLxmk2BXDKTw0N-94" value="" style="ellipse;whiteSpace=wrap;html=1;strokeWidth=2;fillColor=#fff2cc;strokeColor=#d6b656;" parent="1" vertex="1">
          <mxGeometry x="605" y="680" width="50" height="30" as="geometry" />
        </mxCell>
        <mxCell id="CBZNjNMLxmk2BXDKTw0N-95" value="" style="ellipse;whiteSpace=wrap;html=1;strokeWidth=2;fillColor=#fff2cc;strokeColor=#d6b656;" parent="1" vertex="1">
          <mxGeometry x="675" y="730" width="50" height="30" as="geometry" />
        </mxCell>
        <mxCell id="CBZNjNMLxmk2BXDKTw0N-96" value="" style="rounded=0;html=1;labelBackgroundColor=none;startArrow=none;startFill=0;startSize=5;endArrow=none;endFill=0;endSize=5;jettySize=auto;orthogonalLoop=1;strokeWidth=1;fontFamily=Verdana;fontSize=12;entryX=0.5;entryY=1;entryDx=0;entryDy=0;exitX=0.5;exitY=0;exitDx=0;exitDy=0;" parent="1" source="CBZNjNMLxmk2BXDKTw0N-94" target="CBZNjNMLxmk2BXDKTw0N-40" edge="1">
          <mxGeometry x="0.1373" y="16" relative="1" as="geometry">
            <mxPoint as="offset" />
            <mxPoint x="710" y="690" as="sourcePoint" />
            <mxPoint x="710" y="660" as="targetPoint" />
          </mxGeometry>
        </mxCell>
        <mxCell id="CBZNjNMLxmk2BXDKTw0N-97" value="" style="rounded=0;html=1;labelBackgroundColor=none;startArrow=none;startFill=0;startSize=5;endArrow=none;endFill=0;endSize=5;jettySize=auto;orthogonalLoop=1;strokeWidth=1;fontFamily=Verdana;fontSize=12;entryX=0.5;entryY=1;entryDx=0;entryDy=0;exitX=0.5;exitY=0;exitDx=0;exitDy=0;" parent="1" source="CBZNjNMLxmk2BXDKTw0N-95" target="CBZNjNMLxmk2BXDKTw0N-48" edge="1">
          <mxGeometry x="0.1373" y="16" relative="1" as="geometry">
            <mxPoint as="offset" />
            <mxPoint x="640" y="690" as="sourcePoint" />
            <mxPoint x="640" y="660" as="targetPoint" />
          </mxGeometry>
        </mxCell>
        <mxCell id="CBZNjNMLxmk2BXDKTw0N-98" value="" style="ellipse;whiteSpace=wrap;html=1;strokeWidth=2;fillColor=#fff2cc;strokeColor=#d6b656;" parent="1" vertex="1">
          <mxGeometry x="745" y="680" width="50" height="30" as="geometry" />
        </mxCell>
        <mxCell id="CBZNjNMLxmk2BXDKTw0N-99" value="" style="ellipse;whiteSpace=wrap;html=1;strokeWidth=2;fillColor=#fff2cc;strokeColor=#d6b656;" parent="1" vertex="1">
          <mxGeometry x="815" y="730" width="50" height="30" as="geometry" />
        </mxCell>
        <mxCell id="CBZNjNMLxmk2BXDKTw0N-100" value="" style="rounded=0;html=1;labelBackgroundColor=none;startArrow=none;startFill=0;startSize=5;endArrow=none;endFill=0;endSize=5;jettySize=auto;orthogonalLoop=1;strokeWidth=1;fontFamily=Verdana;fontSize=12;entryX=0.5;entryY=1;entryDx=0;entryDy=0;exitX=0.5;exitY=0;exitDx=0;exitDy=0;" parent="1" source="CBZNjNMLxmk2BXDKTw0N-98" target="CBZNjNMLxmk2BXDKTw0N-62" edge="1">
          <mxGeometry x="0.1373" y="16" relative="1" as="geometry">
            <mxPoint as="offset" />
            <mxPoint x="710" y="740" as="sourcePoint" />
            <mxPoint x="710" y="720" as="targetPoint" />
          </mxGeometry>
        </mxCell>
        <mxCell id="CBZNjNMLxmk2BXDKTw0N-101" value="" style="rounded=0;html=1;labelBackgroundColor=none;startArrow=none;startFill=0;startSize=5;endArrow=none;endFill=0;endSize=5;jettySize=auto;orthogonalLoop=1;strokeWidth=1;fontFamily=Verdana;fontSize=12;entryX=0.5;entryY=1;entryDx=0;entryDy=0;exitX=0.5;exitY=0;exitDx=0;exitDy=0;" parent="1" source="CBZNjNMLxmk2BXDKTw0N-99" target="CBZNjNMLxmk2BXDKTw0N-81" edge="1">
          <mxGeometry x="0.1373" y="16" relative="1" as="geometry">
            <mxPoint as="offset" />
            <mxPoint x="780" y="690" as="sourcePoint" />
            <mxPoint x="780" y="660" as="targetPoint" />
          </mxGeometry>
        </mxCell>
        <mxCell id="CBZNjNMLxmk2BXDKTw0N-105" value="" style="rounded=0;whiteSpace=wrap;html=1;fontSize=14;fontColor=#000000;strokeColor=#000000;strokeWidth=1;fillColor=none;movable=1;resizable=1;rotatable=1;deletable=1;editable=1;locked=0;connectable=1;" parent="1" vertex="1">
          <mxGeometry x="410" y="161" width="280" height="220" as="geometry" />
        </mxCell>
        <mxCell id="CBZNjNMLxmk2BXDKTw0N-106" value="" style="rounded=0;whiteSpace=wrap;html=1;fontSize=14;fontColor=#000000;strokeColor=#000000;strokeWidth=1;fillColor=none;" parent="1" vertex="1">
          <mxGeometry x="410" y="445" width="535" height="330" as="geometry" />
        </mxCell>
        <mxCell id="CBZNjNMLxmk2BXDKTw0N-108" value="Questionnaire" style="text;html=1;strokeColor=none;fillColor=none;align=center;verticalAlign=middle;whiteSpace=wrap;rounded=0;fontStyle=1" parent="1" vertex="1">
          <mxGeometry x="497.5" y="137" width="125" height="30" as="geometry" />
        </mxCell>
        <mxCell id="CBZNjNMLxmk2BXDKTw0N-109" value="QuestionnaireResponse" style="text;html=1;strokeColor=none;fillColor=none;align=center;verticalAlign=middle;whiteSpace=wrap;rounded=0;fontStyle=1" parent="1" vertex="1">
          <mxGeometry x="590" y="417" width="175" height="30" as="geometry" />
        </mxCell>
      </root>
    </mxGraphModel>
  </diagram>
</mxfile>
